<?xml version="1.0" standalone="no"?>
<!DOCTYPE svg PUBLIC "-//W3C//DTD SVG 20010904//EN"
 "http://www.w3.org/TR/2001/REC-SVG-20010904/DTD/svg10.dtd">
<svg version="1.0" xmlns="http://www.w3.org/2000/svg"
 width="700.000000pt" height="700.000000pt" viewBox="0 0 700.000000 700.000000"
 preserveAspectRatio="xMidYMid meet">
<metadata>
Created by potrace 1.11, written by Peter Selinger 2001-2013
</metadata>
<g transform="translate(0.000000,700.000000) scale(0.100000,-0.100000)"
fill="#000000" stroke="none">
<path d="M3782 6270 c-18 -50 -55 -148 -83 -219 -46 -118 -52 -129 -79 -134
-34 -7 -76 -63 -113 -152 -14 -33 -129 -339 -257 -680 -298 -798 -290 -777
-303 -773 -7 2 -97 48 -202 103 -212 111 -557 276 -830 397 -246 109 -557 239
-562 235 -2 -2 25 -24 59 -48 136 -94 503 -373 672 -510 261 -210 248 -195
133 -154 -150 54 -179 45 -113 -33 39 -48 123 -126 343 -320 190 -168 237
-222 252 -293 13 -61 7 -88 -50 -226 -46 -109 -474 -1251 -549 -1463 -26 -74
-51 -158 -55 -186 -17 -130 65 -334 135 -334 13 0 37 15 56 35 l33 36 36 -118
c20 -65 39 -127 42 -138 8 -26 -20 -98 358 924 397 1075 396 1071 407 1071 13
0 68 -29 101 -54 61 -44 408 -446 598 -691 297 -383 455 -639 663 -1073 90
-187 143 -221 267 -168 10 5 19 0 25 -14 8 -19 44 7 404 296 217 175 431 347
476 384 l81 66 -948 2150 c-521 1182 -951 2155 -956 2162 -5 8 -20 -20 -41
-78z m213 -866 c52 -288 52 -269 9 -196 -40 70 -94 210 -94 245 0 23 42 148
48 143 2 -2 18 -89 37 -192z m-120 -289 c9 -27 32 -142 51 -255 20 -113 78
-430 129 -705 102 -545 110 -595 101 -595 -3 0 -39 23 -78 52 -118 84 -444
298 -570 373 -65 39 -118 75 -118 80 0 11 382 1046 414 1120 l17 39 20 -29
c10 -17 26 -52 34 -80z"/>
</g>
</svg>
